<svg id="visual" viewBox="0 0 960 540" width="960" height="540" xmlns="http://www.w3.org/2000/svg" xmlns:xlink="http://www.w3.org/1999/xlink" version="1.1"><path d="M0 238L32 259.7C64 281.3 128 324.7 192 352.7C256 380.7 320 393.3 384 359C448 324.7 512 243.3 576 218.5C640 193.7 704 225.3 768 198.8C832 172.3 896 87.7 928 45.3L960 3L960 0L928 0C896 0 832 0 768 0C704 0 640 0 576 0C512 0 448 0 384 0C320 0 256 0 192 0C128 0 64 0 32 0L0 0Z" fill="#ffdaa1" stroke-linecap="round" stroke-linejoin="miter"></path></svg>